<?xml version="1.0" encoding="UTF-8"?>
<svg viewBox="0 0 20 20" version="1.1" xmlns="http://www.w3.org/2000/svg" xmlns:xlink="http://www.w3.org/1999/xlink">
    <title>svg</title>
    <g id="svg" stroke="none" stroke-width="1" fill="none" fill-rule="evenodd">
        <g id="Group-1079" transform="translate(0.000000, 3.000000)" fill-rule="nonzero">
            <path d="M0.063018463,13.1155022 C0.734602161,9.81431971 2.87832132,7.93078612 6.29972409,7.69459461 C8.04079295,7.57462432 9.78661064,7.52563645 11.5686694,7.03200869 C11.2657444,8.21546563 10.4371995,8.58612384 9.47243844,8.77107804 C8.97256222,8.8665544 8.45768972,8.90454499 7.95331461,8.98877414 C7.66238665,9.03726213 7.32996897,9.11374319 7.35896179,9.49889782 C7.38845449,9.8955496 7.7571132,9.88205294 8.03379468,9.89879879 C10.5778602,10.1199966 13.106616,9.32976045 15.0720518,7.69934344 C15.2380107,7.56262729 15.3877237,7.40616603 15.5849248,7.22146177 C15.4532074,8.64260986 14.3237371,9.98727688 12.6913913,10.7655842 C11.1065338,11.521397 9.39570744,11.674859 7.68738047,11.8540646 C6.37970428,11.9912806 5.07077841,12.1194989 3.76335216,12.2729609 C2.52235431,12.4133183 1.34162188,12.8835917 0.343948897,13.6348736 C-0.088693969,13.645621 -0.0229602464,13.3849355 0.063018463,13.1155022 Z" id="Path_1267" fill="#F6781E"></path>
            <path d="M4.66587867,5.84005385 C5.68512628,3.57411495 7.69587836,2.77431301 9.92432654,2.42090052 C11.8695948,2.11172708 13.8446058,1.97876001 15.8053702,1.75281596 C17.3517373,1.57585977 18.8046275,1.15146487 19.9760875,0 C20.2527689,2.35966568 18.0883049,5.22370647 15.5631802,5.92153367 C13.8885949,6.38341929 12.1500254,6.26469869 10.4516959,6.50463928 C9.80935501,6.59536681 9.17301258,6.72958357 8.45094139,6.8583017 C8.90407918,5.43915312 10.0520449,5.25219941 11.206759,5.0664954 C11.7521239,4.97801731 12.6941407,5.16647064 12.6406539,4.47464196 C12.5874171,3.79056135 11.6409015,3.93927453 11.0502977,3.97026686 C8.84636756,4.06330172 6.72331314,4.82670493 4.96480465,6.158475 C4.72161487,6.18721788 4.56215436,6.13673038 4.66587867,5.84005385 Z" id="Path_1268" fill="#164597"></path>
        </g>
    </g>
</svg>